<?xml version="1.0" encoding="utf-8"?>
<?xml-stylesheet type="text/xsl" href="rss1.xsl"?>
<rss version="2.0" xmlns:atom="http://www.w3.org/2005/Atom" xmlns:content="http://purl.org/rss/1.0/modules/content/" xmlns:dc="http://purl.org/dc/elements/1.1/" xmlns:media="http://search.yahoo.com/mrss/">
<channel>
 <title>Getty</title>
 <link>http://www.gettyimg.com/</link>
 <atom:link href="http://www.gettyimg.com/" rel="self" type="application/rss+xml" />

 
                <item>
                <title><![CDATA[【MASTER &amp; MASTER RIP】MASTER - Dove Cameron - Sand [Master 4K]]]></title>
                <link><![CDATA[https://sharemania.us/threads/dove-cameron-sand-master-4k.238361/]]></link>
                <description><![CDATA[<article>
<blockquote class="messageText SelectQuoteContainer ugc baseHtml">
<div style="text-align: center"><img src="https://i.imgur.com/Fude2t9.gif" class="bbCodeImage LbImage" alt="[​IMG]" data-url="https://i.imgur.com/Fude2t9.gif" style=""><br>
​</div>
<div class="ToggleTriggerAnchor bbCodeSpoilerContainer">
<button type="button" class="button bbCodeSpoilerButton ToggleTrigger Tooltip JsOnly" data-target="> .SpoilerTarget"><span>Spoiler: <span class="SpoilerTitle">MASTER</span></span></button>
<div class="SpoilerTarget bbCodeSpoilerText">
<div class="bbCodeBlock bbCodeCode">
<div class="type">Code:</div>
<pre>Format                                   : MPEG-4
Format profile                           : Base Media / Version 2
Codec ID                                 : mp42 (mp42/mp41)
File size                                : 1.23 GiB
Duration                                 : 3 min 50 s
Overall bit rate mode                    : Variable
Overall bit rate                         : 45.6 Mb/s
Encoded date                             : UTC 2023-11-21 21:41:21
Tagged date                              : UTC 2023-11-21 21:47:33
TIM                                      : 00:00:00:00
TSC                                      : 24000
TSZ                                      : 1001

Video
ID                                       : 1
Format                                   : AVC
Format/Info                              : Advanced Video Codec
Format profile                           : Main@L5
Format settings                          : CABAC / 2 Ref Frames
Format settings, CABAC                   : Yes
Format settings, Reference frames        : 2 frames
Format settings, GOP                     : M=2, N=47
Codec ID                                 : avc1
Codec ID/Info                            : Advanced Video Coding
Duration                                 : 3 min 50 s
Bit rate mode                            : Variable
Bit rate                                 : 45.3 Mb/s
Maximum bit rate                         : 768 kb/s
Width                                    : 2 560 pixels
Height                                   : 1 440 pixels
Display aspect ratio                     : 16:9
Frame rate mode                          : Constant
Frame rate                               : 23.976 (24000/1001) FPS
Color space                              : YUV
Chroma subsampling                       : 4:2:0
Bit depth                                : 8 bits
Scan type                                : Progressive
Bits/(Pixel*Frame)                       : 0.512
Stream size                              : 1.22 GiB (99%)
Language                                 : English
Encoded date                             : UTC 2023-11-21 21:41:21
Tagged date                              : UTC 2023-11-21 21:41:21
Color range                              : Limited
Color primaries                          : BT.709
Transfer characteristics                 : BT.709
Matrix coefficients                      : BT.709
Codec configuration box                  : avcC

Audio
ID                                       : 2
Format                                   : AAC LC
Format/Info                              : Advanced Audio Codec Low Complexity
Codec ID                                 : mp4a-40-2
Duration                                 : 3 min 50 s
Source duration                          : 3 min 50 s
Bit rate mode                            : Variable
Bit rate                                 : 317 kb/s
Maximum bit rate                         : 532 kb/s
Channel(s)                               : 2 channels
Channel layout                           : L R
Sampling rate                            : 48.0 kHz
Frame rate                               : 46.875 FPS (1024 SPF)
Compression mode                         : Lossy
Stream size                              : 8.73 MiB (1%)
Source stream size                       : 8.74 MiB (1%)
Language                                 : English
Encoded date                             : UTC 2023-11-21 21:41:24
Tagged date                              : UTC 2023-11-21 21:41:24
</pre>
</div><div style="text-align: center">​</div></div>
</div><div style="text-align: center"><br>
<br>
<div class="bbCodeBlock bbCodeVfcHH HiddenContent">
<div class="attribution type">Hidden Content:</div>
<blockquote>You must reply before you can see the hidden data contained here.</blockquote>
</div></div>
<div class="messageTextEndMarker">&nbsp;</div>
</blockquote>
</article>]]></description>
                <author><![CDATA[fstambuk]]></author>
                </item>

                
                <item>
                <title><![CDATA[【Albums (lossless)】WAV - Lily Allen - Alright, Still (Japan Edition) [CD 16bit / 44.1kHz]]]></title>
                <link><![CDATA[https://sharemania.us/threads/lily-allen-alright-still-japan-edition-cd-16bit-44-1khz.238363/]]></link>
                <description><![CDATA[<article>
<blockquote class="messageText SelectQuoteContainer ugc baseHtml">
<div style="text-align: center"><img src="https://www.pixelsbin.com/images/2024/02/22/2000x2000-15725c36e5c9eafe08.png" class="bbCodeImage LbImage" alt="[​IMG]" data-url="https://www.pixelsbin.com/images/2024/02/22/2000x2000-15725c36e5c9eafe08.png" style=""><br>
<br>
<span style="font-size: 10px"><i><span style="color: #b1bbc4">Includes copyright, composer info, artwork, .log &amp; .cue file.</span></i> <span style="color: #0b0e29"><b>Personal CD rip.</b></span> <br>
<br>
<span style="font-size: 12px"><b> <span style="color: #eb1c24">01.</span></b> <span style="color: #8a989f"> Smile</span></span></span><br>
<span style="font-size: 10px"><span style="font-size: 12px"><span style="color: #8a989f"><b> <span style="color: #eb1c24">02.</span></b> <span style="color: #8a989f"> Knock 'Em Out</span></span></span></span><br>
<span style="font-size: 10px"><span style="font-size: 12px"><span style="color: #8a989f"><span style="color: #8a989f"><b> <span style="color: #eb1c24">03.</span></b> <span style="color: #8a989f"> LDN</span></span></span></span></span><br>
<span style="font-size: 10px"><span style="font-size: 12px"><span style="color: #8a989f"><span style="color: #8a989f"><span style="color: #8a989f"><b> <span style="color: #eb1c24">04.</span></b> <span style="color: #8a989f"> Everything's Just Wonderful</span></span></span></span></span></span><br>
<span style="font-size: 10px"><span style="font-size: 12px"><span style="color: #8a989f"><span style="color: #8a989f"><span style="color: #8a989f"><span style="color: #8a989f"><b> <span style="color: #eb1c24">05.</span></b> <span style="color: #8a989f"> Not Big</span></span></span></span></span></span></span><br>
<span style="font-size: 10px"><span style="font-size: 12px"><span style="color: #8a989f"><span style="color: #8a989f"><span style="color: #8a989f"><span style="color: #8a989f"><span style="color: #8a989f"><b> <span style="color: #eb1c24">06.</span></b> <span style="color: #8a989f"> Friday Night</span></span></span></span></span></span></span></span><br>
<span style="font-size: 10px"><span style="font-size: 12px"><span style="color: #8a989f"><span style="color: #8a989f"><span style="color: #8a989f"><span style="color: #8a989f"><span style="color: #8a989f"><span style="color: #8a989f"><b> <span style="color: #eb1c24">07.</span></b> <span style="color: #8a989f"> Shame for You</span></span></span></span></span></span></span></span></span><br>
<span style="font-size: 10px"><span style="font-size: 12px"><span style="color: #8a989f"><span style="color: #8a989f"><span style="color: #8a989f"><span style="color: #8a989f"><span style="color: #8a989f"><span style="color: #8a989f"><span style="color: #8a989f"><b> <span style="color: #eb1c24">08.</span></b> <span style="color: #8a989f"> Littlest Things</span></span></span></span></span></span></span></span></span></span><br>
<span style="font-size: 10px"><span style="font-size: 12px"><span style="color: #8a989f"><span style="color: #8a989f"><span style="color: #8a989f"><span style="color: #8a989f"><span style="color: #8a989f"><span style="color: #8a989f"><span style="color: #8a989f"><span style="color: #8a989f"><b> <span style="color: #eb1c24">09.</span></b> <span style="color: #8a989f"> Take What You Take</span></span></span></span></span></span></span></span></span></span></span><br>
<span style="font-size: 10px"><span style="font-size: 12px"><span style="color: #8a989f"><span style="color: #8a989f"><span style="color: #8a989f"><span style="color: #8a989f"><span style="color: #8a989f"><span style="color: #8a989f"><span style="color: #8a989f"><span style="color: #8a989f"><span style="color: #8a989f"><b> <span style="color: #eb1c24">10.</span></b> <span style="color: #8a989f"> Friend Of Mine</span></span></span></span></span></span></span></span></span></span></span></span><br>
<span style="font-size: 10px"><span style="font-size: 12px"><span style="color: #8a989f"><span style="color: #8a989f"><span style="color: #8a989f"><span style="color: #8a989f"><span style="color: #8a989f"><span style="color: #8a989f"><span style="color: #8a989f"><span style="color: #8a989f"><span style="color: #8a989f"><span style="color: #8a989f"><b> <span style="color: #eb1c24">11.</span></b> <span style="color: #8a989f"> Alfie</span></span></span></span></span></span></span></span></span></span></span></span></span><br>
<span style="font-size: 10px"><span style="font-size: 12px"><span style="color: #8a989f"><span style="color: #8a989f"><span style="color: #8a989f"><span style="color: #8a989f"><span style="color: #8a989f"><span style="color: #8a989f"><span style="color: #8a989f"><span style="color: #8a989f"><span style="color: #8a989f"><span style="color: #8a989f"><span style="color: #8a989f"><b> <span style="color: #eb1c24">12.</span></b> <span style="color: #8a989f"> Cheryl Tweedy</span></span></span></span></span></span></span></span></span></span></span></span></span></span><br>
<span style="color: #8a989f"><span style="font-size: 12px"><b> <span style="color: #eb1c24">13.</span></b> <span style="color: #8a989f"> Absolutely Nothing<br>
</span></span><br>
<span style="font-size: 10px"><b><span style="color: #8a989f"><span style="text-decoration: underline">D</span> O W N L O A D</span></b></span><br>
<div class="ToggleTriggerAnchor bbCodeSpoilerContainer">
<button type="button" class="button bbCodeSpoilerButton ToggleTrigger Tooltip JsOnly" data-target="> .SpoilerTarget"><span>Spoiler</span></button>
<div class="SpoilerTarget bbCodeSpoilerText">
<div class="bbCodeBlock bbCodeVfcHH HiddenContent">
<div class="attribution type">Hidden Content:</div>
<blockquote>You must reply before you can see the hidden data contained here.</blockquote>
</div></div>
</div></span><br>
<span style="color: #8a989f"><br>
<span style="font-size: 9px"><span style="color: #0b0b25"><b>Host </b></span><span style="color: #8a989f">Google Drive</span></span></span>​</div>
<div class="messageTextEndMarker">&nbsp;</div>
</blockquote>
</article>]]></description>
                <author><![CDATA[blowyourmind]]></author>
                </item>

                
                <item>
                <title><![CDATA[【Cinema Center】SERIES - Gigantosaurus - Season 3 - 1080p Disney+ WEB-DL AAC2.0 H.264-LAZY]]></title>
                <link><![CDATA[https://sharemania.us/threads/gigantosaurus-season-3-1080p-disney-web-dl-aac2-0-h-264-lazy.238362/]]></link>
                <description><![CDATA[<article>
<blockquote class="messageText SelectQuoteContainer ugc baseHtml">
Gigantosaurus:<img src="http:////cdn2.broadcasthe.net/tvdb/banners/graphical/5c4f3db15c2dc.jpg" class="bbCodeImage LbImage" alt="[​IMG]" data-url="http:////cdn2.broadcasthe.net/tvdb/banners/graphical/5c4f3db15c2dc.jpg" style=""> <br>
<br>
<div class="bbCodeBlock bbCodeQuote">
<aside>
<blockquote class="quoteContainer"><div class="quote"><i><b>Synopsis:</b></i><br>
Four curious young dinosaur friends explore the mystery of Gigantosaurus, the largest, fiercest dinosaur of all, facing their individual fears and working together to solve problems during their many adventures.</div><div class="quoteExpand">Click to expand...</div></blockquote>
</aside>
</div>
<div class="ToggleTriggerAnchor bbCodeSpoilerContainer">
<button type="button" class="button bbCodeSpoilerButton ToggleTrigger Tooltip JsOnly" data-target="> .SpoilerTarget"><span>Spoiler: <span class="SpoilerTitle">MediaInfo</span></span></button>
<div class="SpoilerTarget bbCodeSpoilerText">General<br>
Unique ID : 16932162654930979950065764327419902715 (0xCBD04128C914EAEE9A731304BB97AFB)<br>
Complete name : Gigantosaurus.S03E01E02.Ayatis.Great.Adventure.-.King.of.The.Horseshoe.Crabs.1080p.DSNP.WEB-DL.AAC2.0.H.264-LAZY.mkv<br>
Format : Matroska<br>
Format version : Version 4<br>
File size : 972 MiB<br>
Duration : 22 min 11 s<br>
Overall bit rate mode : Variable<br>
Overall bit rate : 6 127 kb/s<br>
Encoded date : UTC 2024-02-22 19:02:55<br>
Writing application : mkvmerge v82.0 ('I'm The President') 64-bit<br>
Writing library : libebml v1.4.5 + libmatroska v1.7.1<br>
<br>
Video<br>
ID : 1<br>
Format : AVC<br>
Format/Info : Advanced Video Codec<br>
Format profile : High@L4<br>
Format settings : CABAC / 4 Ref Frames<br>
Format settings, CABAC : Yes<br>
Format settings, Reference frames : 4 frames<br>
Codec ID : V_MPEG4/ISO/AVC<br>
Duration : 22 min 11 s<br>
Bit rate mode : Variable<br>
Bit rate : 5 996 kb/s<br>
Maximum bit rate : 12.7 Mb/s<br>
Width : 1 920 pixels<br>
Height : 1 080 pixels<br>
Display aspect ratio : 16:9<br>
Frame rate mode : Constant<br>
Frame rate : 23.976 (24000/1001) FPS<br>
Color space : YUV<br>
Chroma subsampling : 4:2:0<br>
Bit depth : 8 bits<br>
Scan type : Progressive<br>
Bits/(Pixel*Frame) : 0.121<br>
Stream size : 951 MiB (98%)<br>
Default : Yes<br>
Forced : No<br>
Color range : Limited<br>
Color primaries : BT.709<br>
Transfer characteristics : BT.709<br>
Matrix coefficients : BT.709<br>
<br>
Audio<br>
ID : 2<br>
Format : AAC LC<br>
Format/Info : Advanced Audio Codec Low Complexity<br>
Codec ID : A_AAC-2<br>
Duration : 22 min 11 s<br>
Bit rate : 125 kb/s<br>
Channel(s) : 2 channels<br>
Channel layout : L R<br>
Sampling rate : 48.0 kHz<br>
Frame rate : 46.875 FPS (1024 SPF)<br>
Compression mode : Lossy<br>
Stream size : 19.9 MiB (2%)<br>
Language : English<br>
Default : Yes<br>
Forced : No<br>
<br>
Text #1<br>
ID : 3<br>
Format : UTF-8<br>
Codec ID : S_TEXT/UTF8<br>
Codec ID/Info : UTF-8 Plain Text<br>
Duration : 21 min 49 s<br>
Bit rate : 74 b/s<br>
Count of elements : 401<br>
Stream size : 11.9 KiB (0%)<br>
Title : SDH<br>
Language : English<br>
Default : No<br>
Forced : No<br>
<br>
Text #2<br>
ID : 4<br>
Format : UTF-8<br>
Codec ID : S_TEXT/UTF8<br>
Codec ID/Info : UTF-8 Plain Text<br>
Duration : 22 min 9 s<br>
Bit rate : 63 b/s<br>
Count of elements : 323<br>
Stream size : 10.4 KiB (0%)<br>
Language : Danish<br>
Default : No<br>
Forced : No<br>
<br>
Text #3<br>
ID : 5<br>
Format : UTF-8<br>
Codec ID : S_TEXT/UTF8<br>
Codec ID/Info : UTF-8 Plain Text<br>
Duration : 22 min 9 s<br>
Bit rate : 75 b/s<br>
Count of elements : 324<br>
Stream size : 12.3 KiB (0%)<br>
Language : German<br>
Default : No<br>
Forced : No<br>
<br>
Text #4<br>
ID : 6<br>
Format : UTF-8<br>
Codec ID : S_TEXT/UTF8<br>
Codec ID/Info : UTF-8 Plain Text<br>
Duration : 22 min 9 s<br>
Bit rate : 71 b/s<br>
Count of elements : 323<br>
Stream size : 11.6 KiB (0%)<br>
Title : Latin American<br>
Language : Spanish<br>
Default : No<br>
Forced : No<br>
<br>
Text #5<br>
ID : 7<br>
Format : UTF-8<br>
Codec ID : S_TEXT/UTF8<br>
Codec ID/Info : UTF-8 Plain Text<br>
Duration : 22 min 9 s<br>
Bit rate : 70 b/s<br>
Count of elements : 325<br>
Stream size : 11.4 KiB (0%)<br>
Title : European<br>
Language : Spanish<br>
Default : No<br>
Forced : No<br>
<br>
Text #6<br>
ID : 8<br>
Format : UTF-8<br>
Codec ID : S_TEXT/UTF8<br>
Codec ID/Info : UTF-8 Plain Text<br>
Duration : 22 min 9 s<br>
Bit rate : 78 b/s<br>
Count of elements : 403<br>
Stream size : 12.8 KiB (0%)<br>
Title : European (SDH)<br>
Language : Spanish<br>
Default : No<br>
Forced : No<br>
<br>
Text #7<br>
ID : 9<br>
Format : UTF-8<br>
Codec ID : S_TEXT/UTF8<br>
Codec ID/Info : UTF-8 Plain Text<br>
Duration : 22 min 9 s<br>
Bit rate : 64 b/s<br>
Count of elements : 323<br>
Stream size : 10.4 KiB (0%)<br>
Language : Finnish<br>
Default : No<br>
Forced : No<br>
<br>
Text #8<br>
ID : 10<br>
Format : UTF-8<br>
Codec ID : S_TEXT/UTF8<br>
Codec ID/Info : UTF-8 Plain Text<br>
Duration : 22 min 9 s<br>
Bit rate : 68 b/s<br>
Count of elements : 324<br>
Stream size : 11.1 KiB (0%)<br>
Language : French<br>
Default : No<br>
Forced : No<br>
<br>
Text #9<br>
ID : 11<br>
Format : UTF-8<br>
Codec ID : S_TEXT/UTF8<br>
Codec ID/Info : UTF-8 Plain Text<br>
Duration : 22 min 9 s<br>
Bit rate : 79 b/s<br>
Count of elements : 402<br>
Stream size : 12.9 KiB (0%)<br>
Title : SDH<br>
Language : French<br>
Default : No<br>
Forced : No<br>
<br>
Text #10<br>
ID : 12<br>
Format : UTF-8<br>
Codec ID : S_TEXT/UTF8<br>
Codec ID/Info : UTF-8 Plain Text<br>
Duration : 22 min 9 s<br>
Bit rate : 70 b/s<br>
Count of elements : 324<br>
Stream size : 11.4 KiB (0%)<br>
Language : Italian<br>
Default : No<br>
Forced : No<br>
<br>
Text #11<br>
ID : 13<br>
Format : UTF-8<br>
Codec ID : S_TEXT/UTF8<br>
Codec ID/Info : UTF-8 Plain Text<br>
Duration : 22 min 9 s<br>
Bit rate : 59 b/s<br>
Count of elements : 291<br>
Stream size : 9.63 KiB (0%)<br>
Language : Dutch<br>
Default : No<br>
Forced : No<br>
<br>
Text #12<br>
ID : 14<br>
Format : UTF-8<br>
Codec ID : S_TEXT/UTF8<br>
Codec ID/Info : UTF-8 Plain Text<br>
Duration : 22 min 9 s<br>
Bit rate : 65 b/s<br>
Count of elements : 324<br>
Stream size : 10.7 KiB (0%)<br>
Language : Norwegian<br>
Default : No<br>
Forced : No<br>
<br>
Text #13<br>
ID : 15<br>
Format : UTF-8<br>
Codec ID : S_TEXT/UTF8<br>
Codec ID/Info : UTF-8 Plain Text<br>
Duration : 21 min 21 s<br>
Bit rate : 61 b/s<br>
Count of elements : 309<br>
Stream size : 9.69 KiB (0%)<br>
Language : Polish<br>
Default : No<br>
Forced : No<br>
<br>
Text #14<br>
ID : 16<br>
Format : UTF-8<br>
Codec ID : S_TEXT/UTF8<br>
Codec ID/Info : UTF-8 Plain Text<br>
Duration : 22 min 9 s<br>
Bit rate : 64 b/s<br>
Count of elements : 323<br>
Stream size : 10.4 KiB (0%)<br>
Title : Brazilian<br>
Language : Portuguese<br>
Default : No<br>
Forced : No<br>
<br>
Text #15<br>
ID : 17<br>
Format : UTF-8<br>
Codec ID : S_TEXT/UTF8<br>
Codec ID/Info : UTF-8 Plain Text<br>
Duration : 22 min 9 s<br>
Bit rate : 69 b/s<br>
Count of elements : 323<br>
Stream size : 11.4 KiB (0%)<br>
Title : European<br>
Language : Portuguese<br>
Default : No<br>
Forced : No<br>
<br>
Text #16<br>
ID : 18<br>
Format : UTF-8<br>
Codec ID : S_TEXT/UTF8<br>
Codec ID/Info : UTF-8 Plain Text<br>
Duration : 22 min 9 s<br>
Bit rate : 68 b/s<br>
Count of elements : 324<br>
Stream size : 11.1 KiB (0%)<br>
Language : Romanian<br>
Default : No<br>
Forced : No<br>
<br>
Text #17<br>
ID : 19<br>
Format : UTF-8<br>
Codec ID : S_TEXT/UTF8<br>
Codec ID/Info : UTF-8 Plain Text<br>
Duration : 22 min 9 s<br>
Bit rate : 56 b/s<br>
Count of elements : 324<br>
Stream size : 9.15 KiB (0%)<br>
Language : Swedish<br>
Default : No<br>
Forced : No<br>
<br>
Text #18<br>
ID : 20<br>
Format : UTF-8<br>
Codec ID : S_TEXT/UTF8<br>
Codec ID/Info : UTF-8 Plain Text<br>
Duration : 22 min 9 s<br>
Bit rate : 66 b/s<br>
Count of elements : 324<br>
Stream size : 10.8 KiB (0%)<br>
Language : Turkish<br>
Default : No<br>
Forced : No<br>
<br>
Text #19<br>
ID : 21<br>
Format : UTF-8<br>
Codec ID : S_TEXT/UTF8<br>
Codec ID/Info : UTF-8 Plain Text<br>
Duration : 22 min 9 s<br>
Bit rate : 60 b/s<br>
Count of elements : 324<br>
Stream size : 9.78 KiB (0%)<br>
Title : Traditional, Hong Kong<br>
Language : Chinese<br>
Default : No<br>
Forced : No<br>
<br>
Text #20<br>
ID : 22<br>
Format : UTF-8<br>
Codec ID : S_TEXT/UTF8<br>
Codec ID/Info : UTF-8 Plain Text<br>
Duration : 22 min 9 s<br>
Bit rate : 62 b/s<br>
Count of elements : 324<br>
Stream size : 10.1 KiB (0%)<br>
Title : Simplified<br>
Language : Chinese<br>
Default : No<br>
Forced : No<br>
<br>
Text #21<br>
ID : 23<br>
Format : UTF-8<br>
Codec ID : S_TEXT/UTF8<br>
Codec ID/Info : UTF-8 Plain Text<br>
Duration : 22 min 9 s<br>
Bit rate : 60 b/s<br>
Count of elements : 323<br>
Stream size : 9.89 KiB (0%)<br>
Title : Traditional<br>
Language : Chinese<br>
Default : No<br>
Forced : No<br>
<br>
Menu<br>
00:00:00.000 : en:Intro<br>
00:00:45.087 : en:Scene 1<br>
00:11:15.634 : en:Scene 2<br>
00:21:50.018 : en:Credits</div>
</div><br>
Screenshots:<br>
<img src="https://ptpimg.me/qs031h.jpg" class="bbCodeImage LbImage" alt="[​IMG]" data-url="https://ptpimg.me/qs031h.jpg" style=""> <br>
<br>
<div class="bbCodeBlock bbCodeVfcHH HiddenContent">
<div class="attribution type">Hidden Content:</div>
<blockquote>You must either reply or click 'Like' to see the hidden information contained here.</blockquote>
</div>
<div class="messageTextEndMarker">&nbsp;</div>
</blockquote>
</article>]]></description>
                <author><![CDATA[LazyRips]]></author>
                </item>

                </channel></rss>